<svg width="457" height="50" viewBox="0 0 457 50" fill="none" xmlns="http://www.w3.org/2000/svg">
<path d="M0.119995 39V5.73602H19.944L19.128 11.352H7.992V20.184H17.688V25.8H7.992V39H0.119995Z" fill="#141414"/>
<path d="M43.9031 25.752C43.9031 26.808 43.8551 27.72 43.7591 28.488H27.9671C28.2231 30.632 28.8311 32.136 29.7911 33C30.7511 33.864 32.0791 34.296 33.7751 34.296C34.7991 34.296 35.7911 34.12 36.7511 33.768C37.7111 33.384 38.7511 32.808 39.8711 32.04L42.9911 36.264C40.0151 38.632 36.7031 39.816 33.0551 39.816C28.9271 39.816 25.7591 38.6 23.5511 36.168C21.3431 33.736 20.2391 30.472 20.2391 26.376C20.2391 23.784 20.7031 21.464 21.6311 19.416C22.5591 17.336 23.9191 15.704 25.7111 14.52C27.5031 13.304 29.6471 12.696 32.1431 12.696C35.8231 12.696 38.7031 13.848 40.7831 16.152C42.8631 18.456 43.9031 21.656 43.9031 25.752ZM36.4631 23.592C36.3991 19.688 35.0231 17.736 32.3351 17.736C31.0231 17.736 29.9991 18.216 29.2631 19.176C28.5591 20.136 28.1271 21.72 27.9671 23.928H36.4631V23.592Z" fill="#141414"/>
<path d="M54.9315 39.816C52.7235 39.816 50.9955 39.192 49.7475 37.944C48.5315 36.664 47.9235 34.856 47.9235 32.52V3.38402L55.5075 2.56802V32.232C55.5075 33.288 55.9395 33.816 56.8035 33.816C57.2515 33.816 57.6675 33.736 58.0515 33.576L59.5395 38.952C58.1635 39.528 56.6275 39.816 54.9315 39.816Z" fill="#141414"/>
<path d="M69.9975 13.512V39H62.4135V13.512H69.9975ZM66.1575 0.0720215C67.4695 0.0720215 68.5415 0.488022 69.3735 1.32002C70.2375 2.12002 70.6695 3.14402 70.6695 4.39202C70.6695 5.64002 70.2375 6.68002 69.3735 7.51202C68.5415 8.31202 67.4695 8.71202 66.1575 8.71202C64.8455 8.71202 63.7735 8.31202 62.9415 7.51202C62.1095 6.68002 61.6935 5.64002 61.6935 4.39202C61.6935 3.14402 62.1095 2.12002 62.9415 1.32002C63.7735 0.488022 64.8455 0.0720215 66.1575 0.0720215Z" fill="#141414"/>
<path d="M90.3604 12.696C93.5604 12.696 95.9444 13.88 97.5124 16.248C99.0804 18.616 99.8644 21.928 99.8644 26.184C99.8644 28.808 99.4484 31.16 98.6164 33.24C97.8164 35.288 96.6484 36.904 95.1124 38.088C93.5764 39.24 91.7844 39.816 89.7364 39.816C87.1764 39.816 85.1124 38.936 83.5444 37.176V48.84L75.9604 49.656V13.512H82.6324L83.0164 16.344C84.0084 15.096 85.1444 14.184 86.4244 13.608C87.7044 13 89.0164 12.696 90.3604 12.696ZM87.4324 34.248C90.4724 34.248 91.9924 31.592 91.9924 26.28C91.9924 23.272 91.6564 21.192 90.9844 20.04C90.3124 18.856 89.3044 18.264 87.9604 18.264C87.0964 18.264 86.2804 18.52 85.5124 19.032C84.7764 19.544 84.1204 20.28 83.5444 21.24V31.992C84.5684 33.496 85.8644 34.248 87.4324 34.248Z" fill="#141414"/>
<path d="M126.825 25.752C126.825 26.808 126.777 27.72 126.681 28.488H110.889C111.145 30.632 111.753 32.136 112.713 33C113.673 33.864 115.001 34.296 116.697 34.296C117.721 34.296 118.713 34.12 119.673 33.768C120.633 33.384 121.673 32.808 122.793 32.04L125.913 36.264C122.937 38.632 119.625 39.816 115.977 39.816C111.849 39.816 108.681 38.6 106.473 36.168C104.265 33.736 103.161 30.472 103.161 26.376C103.161 23.784 103.625 21.464 104.553 19.416C105.481 17.336 106.841 15.704 108.633 14.52C110.425 13.304 112.569 12.696 115.065 12.696C118.745 12.696 121.625 13.848 123.705 16.152C125.785 18.456 126.825 21.656 126.825 25.752ZM119.385 23.592C119.321 19.688 117.945 17.736 115.257 17.736C113.945 17.736 112.921 18.216 112.185 19.176C111.481 20.136 111.049 21.72 110.889 23.928H119.385V23.592Z" fill="#141414"/>
<path d="M153.564 26.28H150.492V39H142.62V5.73602H153.516C158.06 5.73602 161.468 6.56802 163.74 8.23202C166.044 9.89602 167.196 12.44 167.196 15.864C167.196 18.008 166.684 19.8 165.66 21.24C164.636 22.648 163.02 23.848 160.812 24.84L169.26 39H160.38L153.564 26.28ZM150.492 20.856H153.804C155.564 20.856 156.876 20.456 157.74 19.656C158.636 18.856 159.084 17.592 159.084 15.864C159.084 14.264 158.604 13.096 157.644 12.36C156.716 11.624 155.276 11.256 153.324 11.256H150.492V20.856Z" fill="#141414"/>
<path d="M182.438 12.696C186.342 12.696 189.398 13.896 191.606 16.296C193.814 18.664 194.918 21.992 194.918 26.28C194.918 29 194.406 31.384 193.382 33.432C192.39 35.448 190.95 37.016 189.062 38.136C187.206 39.256 184.998 39.816 182.438 39.816C178.566 39.816 175.51 38.632 173.27 36.264C171.062 33.864 169.958 30.52 169.958 26.232C169.958 23.512 170.454 21.144 171.446 19.128C172.47 17.08 173.91 15.496 175.766 14.376C177.654 13.256 179.878 12.696 182.438 12.696ZM182.438 18.264C180.902 18.264 179.75 18.92 178.982 20.232C178.214 21.512 177.83 23.512 177.83 26.232C177.83 29.016 178.198 31.048 178.934 32.328C179.702 33.608 180.87 34.248 182.438 34.248C183.974 34.248 185.126 33.608 185.894 32.328C186.662 31.016 187.046 29 187.046 26.28C187.046 23.496 186.662 21.464 185.894 20.184C185.158 18.904 184.006 18.264 182.438 18.264Z" fill="#141414"/>
<path d="M227.605 12.696C229.621 12.696 231.237 13.384 232.453 14.76C233.669 16.104 234.277 17.976 234.277 20.376V39H226.693V21.672C226.693 19.4 225.973 18.264 224.533 18.264C223.733 18.264 223.029 18.536 222.421 19.08C221.813 19.624 221.221 20.456 220.645 21.576V39H213.061V21.672C213.061 19.4 212.341 18.264 210.901 18.264C210.133 18.264 209.429 18.552 208.789 19.128C208.181 19.672 207.589 20.488 207.013 21.576V39H199.429V13.512H206.053L206.581 16.488C207.573 15.208 208.661 14.264 209.845 13.656C211.061 13.016 212.437 12.696 213.973 12.696C215.413 12.696 216.645 13.048 217.669 13.752C218.725 14.456 219.493 15.448 219.973 16.728C220.997 15.352 222.117 14.344 223.333 13.704C224.581 13.032 226.005 12.696 227.605 12.696Z" fill="#141414"/>
<path d="M262.2 25.752C262.2 26.808 262.152 27.72 262.056 28.488H246.264C246.52 30.632 247.128 32.136 248.088 33C249.048 33.864 250.376 34.296 252.072 34.296C253.096 34.296 254.088 34.12 255.048 33.768C256.008 33.384 257.048 32.808 258.168 32.04L261.288 36.264C258.312 38.632 255 39.816 251.352 39.816C247.224 39.816 244.056 38.6 241.848 36.168C239.64 33.736 238.536 30.472 238.536 26.376C238.536 23.784 239 21.464 239.928 19.416C240.856 17.336 242.216 15.704 244.008 14.52C245.8 13.304 247.944 12.696 250.44 12.696C254.12 12.696 257 13.848 259.08 16.152C261.16 18.456 262.2 21.656 262.2 25.752ZM254.76 23.592C254.696 19.688 253.32 17.736 250.632 17.736C249.32 17.736 248.296 18.216 247.56 19.176C246.856 20.136 246.424 21.72 246.264 23.928H254.76V23.592Z" fill="#141414"/>
<path d="M274.044 13.512V39H266.46V13.512H274.044ZM270.204 0.0720215C271.516 0.0720215 272.588 0.488022 273.42 1.32002C274.284 2.12002 274.716 3.14402 274.716 4.39202C274.716 5.64002 274.284 6.68002 273.42 7.51202C272.588 8.31202 271.516 8.71202 270.204 8.71202C268.892 8.71202 267.82 8.31202 266.988 7.51202C266.156 6.68002 265.74 5.64002 265.74 4.39202C265.74 3.14402 266.156 2.12002 266.988 1.32002C267.82 0.488022 268.892 0.0720215 270.204 0.0720215Z" fill="#141414"/>
<path d="M293.831 12.792C294.759 12.792 295.607 12.904 296.375 13.128L295.175 20.472C294.215 20.248 293.447 20.136 292.871 20.136C291.367 20.136 290.215 20.664 289.415 21.72C288.647 22.744 288.039 24.296 287.591 26.376V39H280.007V13.512H286.631L287.255 18.456C287.831 16.696 288.695 15.32 289.847 14.328C291.031 13.304 292.359 12.792 293.831 12.792Z" fill="#141414"/>
<path d="M308.86 12.696C312.764 12.696 315.82 13.896 318.028 16.296C320.236 18.664 321.34 21.992 321.34 26.28C321.34 29 320.828 31.384 319.804 33.432C318.812 35.448 317.372 37.016 315.484 38.136C313.628 39.256 311.42 39.816 308.86 39.816C304.988 39.816 301.932 38.632 299.692 36.264C297.484 33.864 296.38 30.52 296.38 26.232C296.38 23.512 296.876 21.144 297.868 19.128C298.892 17.08 300.332 15.496 302.188 14.376C304.076 13.256 306.3 12.696 308.86 12.696ZM308.86 18.264C307.324 18.264 306.172 18.92 305.404 20.232C304.636 21.512 304.252 23.512 304.252 26.232C304.252 29.016 304.62 31.048 305.356 32.328C306.124 33.608 307.292 34.248 308.86 34.248C310.396 34.248 311.548 33.608 312.316 32.328C313.084 31.016 313.468 29 313.468 26.28C313.468 23.496 313.084 21.464 312.316 20.184C311.58 18.904 310.428 18.264 308.86 18.264Z" fill="#141414"/>
<path d="M370.41 39H362.682L362.106 25.992C361.946 22.888 361.866 20.12 361.866 17.688C361.866 15.832 361.914 14.072 362.01 12.408L356.874 35.496H349.434L343.962 12.408C344.154 15.192 344.25 17.816 344.25 20.28C344.25 22.136 344.202 24.072 344.106 26.088L343.53 39H335.85L338.346 5.73602H348.282L353.274 28.296L357.93 5.73602H367.914L370.41 39Z" fill="#141414"/>
<path d="M395.232 31.608C395.232 32.568 395.36 33.272 395.616 33.72C395.904 34.168 396.352 34.504 396.96 34.728L395.376 39.672C393.808 39.544 392.528 39.208 391.536 38.664C390.544 38.088 389.776 37.192 389.232 35.976C387.568 38.536 385.008 39.816 381.552 39.816C379.024 39.816 377.008 39.08 375.504 37.608C374 36.136 373.248 34.216 373.248 31.848C373.248 29.064 374.272 26.936 376.32 25.464C378.368 23.992 381.328 23.256 385.2 23.256H387.792V22.152C387.792 20.648 387.472 19.624 386.832 19.08C386.192 18.504 385.072 18.216 383.472 18.216C382.64 18.216 381.632 18.344 380.448 18.6C379.264 18.824 378.048 19.144 376.8 19.56L375.072 14.568C376.672 13.96 378.304 13.496 379.968 13.176C381.664 12.856 383.232 12.696 384.672 12.696C388.32 12.696 390.992 13.448 392.688 14.952C394.384 16.456 395.232 18.712 395.232 21.72V31.608ZM383.76 34.392C385.488 34.392 386.832 33.576 387.792 31.944V27.432H385.92C384.192 27.432 382.896 27.736 382.032 28.344C381.2 28.952 380.784 29.896 380.784 31.176C380.784 32.2 381.04 33 381.552 33.576C382.096 34.12 382.832 34.392 383.76 34.392Z" fill="#141414"/>
<path d="M422.777 39H416.201L415.865 35.784C414.009 38.472 411.433 39.816 408.137 39.816C405.801 39.816 404.025 39.112 402.809 37.704C401.625 36.296 401.033 34.328 401.033 31.8V13.512H408.617V30.84C408.617 32.088 408.809 32.968 409.193 33.48C409.609 33.96 410.233 34.2 411.065 34.2C412.665 34.2 414.041 33.208 415.193 31.224V13.512H422.777V39Z" fill="#141414"/>
<path d="M442.566 12.792C443.494 12.792 444.342 12.904 445.11 13.128L443.91 20.472C442.95 20.248 442.182 20.136 441.606 20.136C440.102 20.136 438.95 20.664 438.15 21.72C437.382 22.744 436.774 24.296 436.326 26.376V39H428.742V13.512H435.366L435.99 18.456C436.566 16.696 437.43 15.32 438.582 14.328C439.766 13.304 441.094 12.792 442.566 12.792Z" fill="#141414"/>
<path d="M455.591 13.512V39H448.007V13.512H455.591ZM451.751 0.0720215C453.063 0.0720215 454.135 0.488022 454.967 1.32002C455.831 2.12002 456.263 3.14402 456.263 4.39202C456.263 5.64002 455.831 6.68002 454.967 7.51202C454.135 8.31202 453.063 8.71202 451.751 8.71202C450.439 8.71202 449.367 8.31202 448.535 7.51202C447.703 6.68002 447.287 5.64002 447.287 4.39202C447.287 3.14402 447.703 2.12002 448.535 1.32002C449.367 0.488022 450.439 0.0720215 451.751 0.0720215Z" fill="#141414"/>
</svg>
